{
  "accessors": [
    {
      "bufferView": 3,
      "componentType": 5126,
      "count": 5940,
      "max": [
        2.5979514122009277,
        1.7185481786727905,
        3.3352890014648438
      ],
      "min": [
        -2.5979514122009277,
        -1.4213643074035645,
        -3.7326719760894775
      ],
      "type": "VEC3"
    },
    {
      "bufferView": 3,
      "byteOffset": 71280,
      "componentType": 5126,
      "count": 5940,
      "max": [
        0.9999488592147827,
        0.9999998807907104,
        0.9994778037071228
      ],
      "min": [
        -0.9999275207519531,
        -1.0,
        -0.999859094619751
      ],
      "type": "VEC3"
    },
    {
      "bufferView": 4,
      "componentType": 5126,
      "count": 5940,
      "max": [
        0.9999707341194153,
        0.9999019503593445,
        1.0,
        1.0
      ],
      "min": [
        -0.999954879283905,
        -0.9995598196983337,
        -1.0,
        -1.0
      ],
      "type": "VEC4"
    },
    {
      "bufferView": 2,
      "componentType": 5126,
      "count": 5940,
      "max": [
        0.9965999722480774,
        0.9980000257492065
      ],
      "min": [
        -0.16019999980926514,
        -0.12109994888305664
      ],
      "type": "VEC2"
    },
    {
      "bufferView": 1,
      "componentType": 5125,
      "count": 25806,
      "type": "SCALAR"
    },
    {
      "bufferView": 3,
      "byteOffset": 142560,
      "componentType": 5126,
      "count": 3682,
      "max": [
        1.4693996906280518,
        3.115880250930786,
        3.2298622131347656
      ],
      "min": [
        -1.4693996906280518,
        -0.45132312178611755,
        -1.6958333253860474
      ],
      "type": "VEC3"
    },
    {
      "bufferView": 3,
      "byteOffset": 186744,
      "componentType": 5126,
      "count": 3682,
      "max": [
        0.9999772310256958,
        1.0,
        1.0
      ],
      "min": [
        -0.9999772310256958,
        -0.9999587535858154,
        -1.0
      ],
      "type": "VEC3"
    },
    {
      "bufferView": 4,
      "byteOffset": 95040,
      "componentType": 5126,
      "count": 3682,
      "max": [
        0.9999912977218628,
        0.9998735785484314,
        1.0,
        1.0
      ],
      "min": [
        -0.9999794960021973,
        -1.0,
        -0.999995231628418,
        -1.0
      ],
      "type": "VEC4"
    },
    {
      "bufferView": 2,
      "byteOffset": 47520,
      "componentType": 5126,
      "count": 3682,
      "max": [
        1.0016000270843506,
        0.9951000213623047
      ],
      "min": [
        0.002899999963119626,
        0.000500023365020752
      ],
      "type": "VEC2"
    },
    {
      "bufferView": 1,
      "byteOffset": 103224,
      "componentType": 5125,
      "count": 13683,
      "type": "SCALAR"
    },
    {
      "bufferView": 3,
      "byteOffset": 230928,
      "componentType": 5126,
      "count": 4950,
      "max": [
        3.5178050994873047,
        0.7231836915016174,
        0.7395191192626953
      ],
      "min": [
        -3.5178050994873047,
        -1.4060931205749512,
        -1.2053959369659424
      ],
      "type": "VEC3"
    },
    {
      "bufferView": 3,
      "byteOffset": 290328,
      "componentType": 5126,
      "count": 4950,
      "max": [
        0.9999373555183411,
        0.999669075012207,
        0.9999803304672241
      ],
      "min": [
        -0.9999373555183411,
        -0.9999992847442627,
        -0.9999803304672241
      ],
      "type": "VEC3"
    },
    {
      "bufferView": 4,
      "byteOffset": 153952,
      "componentType": 5126,
      "count": 4950,
      "max": [
        0.9999982714653015,
        0.9999660849571228,
        0.9999995231628418,
        1.0
      ],
      "min": [
        -0.9999982118606567,
        -0.9992853403091431,
        -0.999997615814209,
        -1.0
      ],
      "type": "VEC4"
    },
    {
      "bufferView": 2,
      "byteOffset": 76976,
      "componentType": 5126,
      "count": 4950,
      "max": [
        0.9955999851226807,
        0.9961000084877014
      ],
      "min": [
        0.0038999998942017555,
        0.004400014877319336
      ],
      "type": "VEC2"
    },
    {
      "bufferView": 1,
      "byteOffset": 157956,
      "componentType": 5125,
      "count": 20748,
      "type": "SCALAR"
    },
    {
      "bufferView": 3,
      "byteOffset": 349728,
      "componentType": 5126,
      "count": 4374,
      "max": [
        8.162762641906738,
        1.980623483657837,
        2.9048779010772705
      ],
      "min": [
        4.515224456787109,
        -0.488639771938324,
        -1.6905180215835571
      ],
      "type": "VEC3"
    },
    {
      "bufferView": 3,
      "byteOffset": 402216,
      "componentType": 5126,
      "count": 4374,
      "max": [
        0.9999977350234985,
        1.0,
        1.0
      ],
      "min": [
        -0.9999977350234985,
        -1.0,
        -1.0
      ],
      "type": "VEC3"
    },
    {
      "bufferView": 4,
      "byteOffset": 233152,
      "componentType": 5126,
      "count": 4374,
      "max": [
        0.9999963641166687,
        1.0,
        1.0,
        1.0
      ],
      "min": [
        -0.9999963641166687,
        -1.0,
        -1.0,
        -1.0
      ],
      "type": "VEC4"
    },
    {
      "bufferView": 2,
      "byteOffset": 116576,
      "componentType": 5126,
      "count": 4374,
      "max": [
        1.0015000104904175,
        0.9951000213623047
      ],
      "min": [
        0.002899999963119626,
        0.000500023365020752
      ],
      "type": "VEC2"
    },
    {
      "bufferView": 1,
      "byteOffset": 240948,
      "componentType": 5125,
      "count": 17082,
      "type": "SCALAR"
    },
    {
      "bufferView": 3,
      "byteOffset": 454704,
      "componentType": 5126,
      "count": 6018,
      "max": [
        9.045555114746094,
        1.7136355638504028,
        3.4627633094787598
      ],
      "min": [
        3.6324315071105957,
        -0.9611548185348511,
        -3.878575563430786
      ],
      "type": "VEC3"
    },
    {
      "bufferView": 3,
      "byteOffset": 526920,
      "componentType": 5126,
      "count": 6018,
      "max": [
        0.9999958276748657,
        1.0,
        0.9996463060379028
      ],
      "min": [
        -0.9999959468841553,
        -1.0,
        -0.9998860359191895
      ],
      "type": "VEC3"
    },
    {
      "bufferView": 4,
      "byteOffset": 303136,
      "componentType": 5126,
      "count": 6018,
      "max": [
        1.0,
        0.9999999403953552,
        1.0,
        1.0
      ],
      "min": [
        -1.0,
        -0.9999998807907104,
        -1.0,
        -1.0
      ],
      "type": "VEC4"
    },
    {
      "bufferView": 2,
      "byteOffset": 151568,
      "componentType": 5126,
      "count": 6018,
      "max": [
        0.9965999722480774,
        0.9980000257492065
      ],
      "min": [
        -0.16019999980926514,
        -0.12109994888305664
      ],
      "type": "VEC2"
    },
    {
      "bufferView": 1,
      "byteOffset": 309276,
      "componentType": 5125,
      "count": 26283,
      "type": "SCALAR"
    },
    {
      "bufferView": 3,
      "byteOffset": 599136,
      "componentType": 5126,
      "count": 4075,
      "max": [
        8.769979476928711,
        0.13201916217803955,
        0.5201636552810669
      ],
      "min": [
        3.9080071449279785,
        -0.8625531792640686,
        -0.9470463395118713
      ],
      "type": "VEC3"
    },
    {
      "bufferView": 3,
      "byteOffset": 648036,
      "componentType": 5126,
      "count": 4075,
      "max": [
        0.9999756813049316,
        0.9999106526374817,
        0.9999775886535645
      ],
      "min": [
        -0.9999750852584839,
        -0.9999189972877502,
        -0.9999775886535645
      ],
      "type": "VEC3"
    },
    {
      "bufferView": 4,
      "byteOffset": 399424,
      "componentType": 5126,
      "count": 4075,
      "max": [
        0.9996024966239929,
        0.9992353320121765,
        0.9999979138374329,
        1.0
      ],
      "min": [
        -0.9996024370193481,
        -0.999954879283905,
        -0.9999739527702332,
        -1.0
      ],
      "type": "VEC4"
    },
    {
      "bufferView": 2,
      "byteOffset": 199712,
      "componentType": 5126,
      "count": 4075,
      "max": [
        0.9955999851226807,
        0.9961000084877014
      ],
      "min": [
        0.0038999998942017555,
        0.004400014877319336
      ],
      "type": "VEC2"
    },
    {
      "bufferView": 1,
      "byteOffset": 414408,
      "componentType": 5125,
      "count": 16500,
      "type": "SCALAR"
    },
    {
      "bufferView": 5,
      "componentType": 5126,
      "count": 4,
      "max": [
        1.0,
        0.9999998211860657,
        0.0,
        0.0,
        0.0,
        1.0,
        0.9999998211860657,
        0.0,
        0.0,
        0.2294892817735672,
        1.0,
        0.0,
        1.428512454032898,
        0.05543147772550583,
        0.24476276338100433,
        1.0
      ],
      "min": [
        -0.22948922216892242,
        -0.9733108878135681,
        -0.0006173388683237135,
        0.0,
        -0.9999972581863403,
        -0.0005991865764372051,
        -0.002884245477616787,
        0.0,
        -0.973311185836792,
        0.0,
        0.00013727757323067635,
        0.0,
        -0.23437242209911346,
        0.0,
        -0.28478413820266724,
        1.0
      ],
      "type": "MAT4"
    },
    {
      "bufferView": 5,
      "byteOffset": 256,
      "componentType": 5126,
      "count": 4,
      "max": [
        1.0,
        0.9999998211860657,
        0.0,
        0.0,
        0.0,
        1.0,
        0.9999998211860657,
        0.0,
        0.0,
        0.2294892817735672,
        1.0,
        0.0,
        1.4289374351501465,
        6.225242614746094,
        0.2486661672592163,
        1.0
      ],
      "min": [
        -0.22948922216892242,
        -0.9733108878135681,
        -0.0006173388683237135,
        0.0,
        -0.9999972581863403,
        -0.0005991865764372051,
        -0.002884245477616787,
        0.0,
        -0.973311185836792,
        0.0,
        0.00013727757323067635,
        0.0,
        0.0,
        -6.338079452514648,
        -0.28108692169189453,
        1.0
      ],
      "type": "MAT4"
    },
    {
      "bufferView": 0,
      "componentType": 5123,
      "count": 5940,
      "type": "VEC4"
    },
    {
      "bufferView": 4,
      "byteOffset": 464624,
      "componentType": 5126,
      "count": 5940,
      "max": [
        1.0,
        0.0,
        0.0,
        0.0
      ],
      "min": [
        1.0,
        0.0,
        0.0,
        0.0
      ],
      "type": "VEC4"
    },
    {
      "bufferView": 0,
      "byteOffset": 47520,
      "componentType": 5123,
      "count": 3682,
      "type": "VEC4"
    },
    {
      "bufferView": 4,
      "byteOffset": 559664,
      "componentType": 5126,
      "count": 3682,
      "max": [
        1.0,
        0.0,
        0.0,
        0.0
      ],
      "min": [
        1.0,
        0.0,
        0.0,
        0.0
      ],
      "type": "VEC4"
    },
    {
      "bufferView": 0,
      "byteOffset": 76976,
      "componentType": 5123,
      "count": 4950,
      "type": "VEC4"
    },
    {
      "bufferView": 4,
      "byteOffset": 618576,
      "componentType": 5126,
      "count": 4950,
      "max": [
        1.0,
        0.0,
        0.0,
        0.0
      ],
      "min": [
        1.0,
        0.0,
        0.0,
        0.0
      ],
      "type": "VEC4"
    },
    {
      "bufferView": 0,
      "byteOffset": 116576,
      "componentType": 5123,
      "count": 4374,
      "type": "VEC4"
    },
    {
      "bufferView": 4,
      "byteOffset": 697776,
      "componentType": 5126,
      "count": 4374,
      "max": [
        1.0,
        0.0,
        0.0,
        0.0
      ],
      "min": [
        1.0,
        0.0,
        0.0,
        0.0
      ],
      "type": "VEC4"
    },
    {
      "bufferView": 0,
      "byteOffset": 151568,
      "componentType": 5123,
      "count": 6018,
      "type": "VEC4"
    },
    {
      "bufferView": 4,
      "byteOffset": 767760,
      "componentType": 5126,
      "count": 6018,
      "max": [
        1.0,
        0.0,
        0.0,
        0.0
      ],
      "min": [
        1.0,
        0.0,
        0.0,
        0.0
      ],
      "type": "VEC4"
    },
    {
      "bufferView": 0,
      "byteOffset": 199712,
      "componentType": 5123,
      "count": 4075,
      "type": "VEC4"
    },
    {
      "bufferView": 4,
      "byteOffset": 864048,
      "componentType": 5126,
      "count": 4075,
      "max": [
        1.0,
        0.0,
        0.0,
        0.0
      ],
      "min": [
        1.0,
        0.0,
        0.0,
        0.0
      ],
      "type": "VEC4"
    }
  ],
  "asset": {
    "extras": {
      "author": "photon (that one larry) (https://sketchfab.com/Professor_E12)",
      "license": "CC-BY-4.0 (http://creativecommons.org/licenses/by/4.0/)",
      "source": "https://sketchfab.com/3d-models/siege-tanks-28d9fd9f4e7d4329ba06f27581a4c230",
      "title": "siege tanks"
    },
    "generator": "Sketchfab-17.8.0",
    "version": "2.0"
  },
  "bufferViews": [
    {
      "buffer": 0,
      "byteLength": 232312,
      "byteStride": 8,
      "name": "shortBufferViews",
      "target": 34962
    },
    {
      "buffer": 0,
      "byteLength": 480408,
      "byteOffset": 232312,
      "name": "floatBufferViews",
      "target": 34963
    },
    {
      "buffer": 0,
      "byteLength": 232312,
      "byteOffset": 712720,
      "byteStride": 8,
      "name": "floatBufferViews",
      "target": 34962
    },
    {
      "buffer": 0,
      "byteLength": 696936,
      "byteOffset": 945032,
      "byteStride": 12,
      "name": "floatBufferViews",
      "target": 34962
    },
    {
      "buffer": 0,
      "byteLength": 929248,
      "byteOffset": 1641968,
      "byteStride": 16,
      "name": "floatBufferViews",
      "target": 34962
    },
    {
      "buffer": 0,
      "byteLength": 512,
      "byteOffset": 2571216,
      "name": "floatBufferViews"
    }
  ],
  "buffers": [
    {
      "byteLength": 2571728,
      "uri": "scene.bin"
    }
  ],
  "extensionsUsed": [
    "KHR_materials_specular"
  ],
  "images": [
    {
      "uri": "textures/siegetank1_baseColor.png"
    },
    {
      "uri": "textures/siegetank1_normal.png"
    },
    {
      "uri": "textures/siegetank1_specularf0.png"
    },
    {
      "uri": "textures/siegetank2_baseColor.png"
    },
    {
      "uri": "textures/siegetank2_normal.png"
    }
  ],
  "materials": [
    {
      "doubleSided": true,
      "extensions": {
        "KHR_materials_specular": {
          "specularColorFactor": [
            1.0,
            1.0,
            1.0
          ],
          "specularFactor": 1.0,
          "specularTexture": {
            "index": 2
          }
        }
      },
      "name": "siegetank1",
      "normalTexture": {
        "index": 1
      },
      "pbrMetallicRoughness": {
        "baseColorTexture": {
          "index": 0
        },
        "metallicFactor": 0.0,
        "roughnessFactor": 0.390625
      }
    },
    {
      "doubleSided": true,
      "extensions": {
        "KHR_materials_specular": {
          "specularColorFactor": [
            1.0,
            1.0,
            1.0
          ],
          "specularFactor": 1.0
        }
      },
      "name": "siegetank2",
      "normalTexture": {
        "index": 4
      },
      "pbrMetallicRoughness": {
        "baseColorTexture": {
          "index": 3
        },
        "metallicFactor": 0.0,
        "roughnessFactor": 0.390625
      }
    },
    {
      "doubleSided": true,
      "extensions": {
        "KHR_materials_specular": {
          "specularColorFactor": [
            1.0,
            1.0,
            1.0
          ],
          "specularFactor": 1.0
        }
      },
      "name": "siegetank3",
      "normalTexture": {
        "index": 4
      },
      "pbrMetallicRoughness": {
        "baseColorTexture": {
          "index": 3
        },
        "metallicFactor": 0.0,
        "roughnessFactor": 0.390625
      }
    }
  ],
  "meshes": [
    {
      "name": "Object_0",
      "primitives": [
        {
          "attributes": {
            "JOINTS_0": 32,
            "NORMAL": 1,
            "POSITION": 0,
            "TANGENT": 2,
            "TEXCOORD_0": 3,
            "TEXCOORD_1": 3,
            "WEIGHTS_0": 33
          },
          "indices": 4,
          "material": 0,
          "mode": 4
        }
      ]
    },
    {
      "name": "Object_1",
      "primitives": [
        {
          "attributes": {
            "JOINTS_0": 34,
            "NORMAL": 6,
            "POSITION": 5,
            "TANGENT": 7,
            "TEXCOORD_0": 8,
            "TEXCOORD_1": 8,
            "WEIGHTS_0": 35
          },
          "indices": 9,
          "material": 1,
          "mode": 4
        }
      ]
    },
    {
      "name": "Object_2",
      "primitives": [
        {
          "attributes": {
            "JOINTS_0": 36,
            "NORMAL": 11,
            "POSITION": 10,
            "TANGENT": 12,
            "TEXCOORD_0": 13,
            "TEXCOORD_1": 13,
            "WEIGHTS_0": 37
          },
          "indices": 14,
          "material": 2,
          "mode": 4
        }
      ]
    },
    {
      "name": "Object_3",
      "primitives": [
        {
          "attributes": {
            "JOINTS_0": 38,
            "NORMAL": 16,
            "POSITION": 15,
            "TANGENT": 17,
            "TEXCOORD_0": 18,
            "TEXCOORD_1": 18,
            "WEIGHTS_0": 39
          },
          "indices": 19,
          "material": 1,
          "mode": 4
        }
      ]
    },
    {
      "name": "Object_4",
      "primitives": [
        {
          "attributes": {
            "JOINTS_0": 40,
            "NORMAL": 21,
            "POSITION": 20,
            "TANGENT": 22,
            "TEXCOORD_0": 23,
            "TEXCOORD_1": 23,
            "WEIGHTS_0": 41
          },
          "indices": 24,
          "material": 0,
          "mode": 4
        }
      ]
    },
    {
      "name": "Object_5",
      "primitives": [
        {
          "attributes": {
            "JOINTS_0": 42,
            "NORMAL": 26,
            "POSITION": 25,
            "TANGENT": 27,
            "TEXCOORD_0": 28,
            "TEXCOORD_1": 28,
            "WEIGHTS_0": 43
          },
          "indices": 29,
          "material": 2,
          "mode": 4
        }
      ]
    }
  ],
  "nodes": [
    {
      "children": [
        1
      ],
      "matrix": [
        1.0,
        0.0,
        0.0,
        0.0,
        0.0,
        2.220446049250313e-16,
        -1.0,
        0.0,
        0.0,
        1.0,
        2.220446049250313e-16,
        0.0,
        0.0,
        0.0,
        0.0,
        1.0
      ],
      "name": "Sketchfab_model"
    },
    {
      "children": [
        2
      ],
      "name": "root"
    },
    {
      "children": [
        3,
        13
      ],
      "matrix": [
        1.0,
        0.0,
        0.0,
        0.0,
        0.0,
        2.220446049250313e-16,
        1.0,
        0.0,
        0.0,
        -1.0,
        2.220446049250313e-16,
        0.0,
        0.0,
        0.0,
        0.0,
        1.0
      ],
      "name": "GLTF_SceneRootNode"
    },
    {
      "children": [
        4
      ],
      "name": "siegetank_siege_ARM_4"
    },
    {
      "children": [
        5,
        7,
        8,
        9,
        6
      ],
      "name": "GLTF_created_0"
    },
    {
      "children": [
        10
      ],
      "name": "GLTF_created_0_rootJoint"
    },
    {
      "name": "studio_tank_siege_ref.smd_3"
    },
    {
      "mesh": 0,
      "name": "Object_7",
      "skin": 0
    },
    {
      "mesh": 1,
      "name": "Object_8",
      "skin": 0
    },
    {
      "mesh": 2,
      "name": "Object_9",
      "skin": 0
    },
    {
      "children": [
        11
      ],
      "name": "tank_2",
      "rotation": [
        -0.43902528285980225,
        0.55424565076828,
        0.5545777678489685,
        0.43876218795776367
      ],
      "scale": [
        1.0,
        1.0000001192092896,
        1.0
      ],
      "translation": [
        0.0,
        0.2848172187805176,
        -0.24079912900924683
      ]
    },
    {
      "children": [
        12
      ],
      "name": "turret_1",
      "rotation": [
        -0.7033382654190063,
        0.08178378641605377,
        0.7013558745384216,
        0.08201602846384048
      ],
      "scale": [
        0.9999985694885254,
        0.9999998807907104,
        1.0
      ],
      "translation": [
        1.3122928521624999e-08,
        7.566995918750763e-10,
        1.1443933248519897
      ]
    },
    {
      "name": "cannon_0",
      "rotation": [
        7.82174538471736e-07,
        -1.2202528765214993e-08,
        -6.019173497406882e-07,
        1.0
      ],
      "translation": [
        3.357176225904368e-08,
        -4.1000021155923605e-08,
        0.3562125265598297
      ]
    },
    {
      "children": [
        14
      ],
      "matrix": [
        1.0,
        0.0,
        0.0,
        0.0,
        0.0,
        1.0,
        0.0,
        0.0,
        0.0,
        0.0,
        1.0,
        0.0,
        6.338993549346924,
        0.0,
        0.0,
        1.0
      ],
      "name": "siegetank_ARM_9"
    },
    {
      "children": [
        15,
        17,
        18,
        19,
        16
      ],
      "name": "GLTF_created_1"
    },
    {
      "children": [
        20
      ],
      "name": "GLTF_created_1_rootJoint"
    },
    {
      "name": "studio_tank_ref.smd_8"
    },
    {
      "mesh": 3,
      "name": "Object_17",
      "skin": 1
    },
    {
      "mesh": 4,
      "name": "Object_18",
      "skin": 1
    },
    {
      "mesh": 5,
      "name": "Object_19",
      "skin": 1
    },
    {
      "children": [
        21
      ],
      "name": "tank_7",
      "rotation": [
        -0.43902528285980225,
        0.55424565076828,
        0.5545777678489685,
        0.43876218795776367
      ],
      "scale": [
        1.0,
        1.0000001192092896,
        1.0
      ],
      "translation": [
        0.0,
        0.2848172187805176,
        -0.24079912900924683
      ]
    },
    {
      "children": [
        22
      ],
      "name": "turret_6",
      "rotation": [
        -0.7033382654190063,
        0.08178378641605377,
        0.7013558745384216,
        0.08201602846384048
      ],
      "scale": [
        0.9999985694885254,
        0.9999998807907104,
        1.0
      ],
      "translation": [
        5.065231789558311e-08,
        -3.105378709733486e-07,
        1.1443933248519897
      ]
    },
    {
      "name": "cannon_5",
      "rotation": [
        7.82174538471736e-07,
        -1.2202528765214993e-08,
        -6.019173497406882e-07,
        1.0
      ],
      "translation": [
        -3.943569026887417e-08,
        3.0539376894012094e-07,
        0.3562125563621521
      ]
    }
  ],
  "samplers": [
    {
      "magFilter": 9729,
      "minFilter": 9987,
      "wrapS": 10497,
      "wrapT": 10497
    }
  ],
  "scene": 0,
  "scenes": [
    {
      "name": "Sketchfab_Scene",
      "nodes": [
        0
      ]
    }
  ],
  "skins": [
    {
      "inverseBindMatrices": 30,
      "joints": [
        5,
        10,
        11,
        12
      ],
      "skeleton": 5
    },
    {
      "inverseBindMatrices": 31,
      "joints": [
        15,
        20,
        21,
        22
      ],
      "skeleton": 15
    }
  ],
  "textures": [
    {
      "sampler": 0,
      "source": 0
    },
    {
      "sampler": 0,
      "source": 1
    },
    {
      "sampler": 0,
      "source": 2
    },
    {
      "sampler": 0,
      "source": 3
    },
    {
      "sampler": 0,
      "source": 4
    }
  ]
}
