{
  "accessors": [
    {
      "bufferView": 2,
      "componentType": 5126,
      "count": 264,
      "max": [
        0.14580599963665009,
        0.20991699397563934,
        0.24842500686645508
      ],
      "min": [
        -0.14580599963665009,
        -2.099999983329326e-05,
        -0.07576099783182144
      ],
      "type": "VEC3"
    },
    {
      "bufferView": 2,
      "byteOffset": 3168,
      "componentType": 5126,
      "count": 264,
      "max": [
        0.9998288750648499,
        1.0,
        0.9904608726501465
      ],
      "min": [
        -0.9998288750648499,
        -1.0,
        -0.9999966621398926
      ],
      "type": "VEC3"
    },
    {
      "bufferView": 1,
      "componentType": 5126,
      "count": 264,
      "max": [
        0.978672981262207,
        0.9028339982032776
      ],
      "min": [
        0.0014130000490695238,
        0.024776995182037354
      ],
      "type": "VEC2"
    },
    {
      "bufferView": 0,
      "componentType": 5125,
      "count": 984,
      "type": "SCALAR"
    },
    {
      "bufferView": 2,
      "byteOffset": 6336,
      "componentType": 5126,
      "count": 1228,
      "max": [
        0.5564699769020081,
        1.2206770181655884,
        0.148934006690979
      ],
      "min": [
        -0.5564699769020081,
        0.18123599886894226,
        -0.17081999778747559
      ],
      "type": "VEC3"
    },
    {
      "bufferView": 2,
      "byteOffset": 21072,
      "componentType": 5126,
      "count": 1228,
      "max": [
        0.9999936819076538,
        0.9999231696128845,
        1.0
      ],
      "min": [
        -0.9999920129776001,
        -0.9999898672103882,
        -0.9996650815010071
      ],
      "type": "VEC3"
    },
    {
      "bufferView": 1,
      "byteOffset": 2112,
      "componentType": 5126,
      "count": 1228,
      "max": [
        0.9998040199279785,
        0.9984409809112549
      ],
      "min": [
        0.0039059999398887157,
        0.0006989836692810059
      ],
      "type": "VEC2"
    },
    {
      "bufferView": 0,
      "byteOffset": 3936,
      "componentType": 5125,
      "count": 4800,
      "type": "SCALAR"
    },
    {
      "bufferView": 2,
      "byteOffset": 35808,
      "componentType": 5126,
      "count": 636,
      "max": [
        0.2173510044813156,
        0.9500830173492432,
        0.12713199853897095
      ],
      "min": [
        -0.21735000610351563,
        0.18123599886894226,
        -0.21500900387763977
      ],
      "type": "VEC3"
    },
    {
      "bufferView": 2,
      "byteOffset": 43440,
      "componentType": 5126,
      "count": 636,
      "max": [
        0.9997010827064514,
        0.9986833333969116,
        0.9998000264167786
      ],
      "min": [
        -0.9997010827064514,
        -1.0,
        -0.9999825954437256
      ],
      "type": "VEC3"
    },
    {
      "bufferView": 1,
      "byteOffset": 11936,
      "componentType": 5126,
      "count": 636,
      "max": [
        0.9987890124320984,
        0.9999229907989502
      ],
      "min": [
        0.0016339999856427312,
        0.0009940266609191895
      ],
      "type": "VEC2"
    },
    {
      "bufferView": 0,
      "byteOffset": 23136,
      "componentType": 5125,
      "count": 2376,
      "type": "SCALAR"
    },
    {
      "bufferView": 2,
      "byteOffset": 51072,
      "componentType": 5126,
      "count": 1421,
      "max": [
        0.09246499836444855,
        1.0970159769058228,
        0.08015599846839905
      ],
      "min": [
        -0.09246399998664856,
        0.9164569973945618,
        -0.07035200297832489
      ],
      "type": "VEC3"
    },
    {
      "bufferView": 2,
      "byteOffset": 68124,
      "componentType": 5126,
      "count": 1421,
      "max": [
        0.9974828958511353,
        0.9995179772377014,
        1.0
      ],
      "min": [
        -0.9974828958511353,
        -0.9975687265396118,
        -0.9999916553497314
      ],
      "type": "VEC3"
    },
    {
      "bufferView": 1,
      "byteOffset": 17024,
      "componentType": 5126,
      "count": 1421,
      "max": [
        0.9972890019416809,
        0.99754798412323
      ],
      "min": [
        0.0040480000898242,
        0.0012869834899902344
      ],
      "type": "VEC2"
    },
    {
      "bufferView": 0,
      "byteOffset": 32640,
      "componentType": 5125,
      "count": 6549,
      "type": "SCALAR"
    },
    {
      "bufferView": 2,
      "byteOffset": 85176,
      "componentType": 5126,
      "count": 184,
      "max": [
        0.4917350113391876,
        0.931423008441925,
        0.02821899950504303
      ],
      "min": [
        -0.49173399806022644,
        0.856311023235321,
        -0.06877300143241882
      ],
      "type": "VEC3"
    },
    {
      "bufferView": 2,
      "byteOffset": 87384,
      "componentType": 5126,
      "count": 184,
      "max": [
        1.0,
        0.9995920062065125,
        0.9968590140342712
      ],
      "min": [
        -1.0,
        -0.9992959499359131,
        -0.8816099166870117
      ],
      "type": "VEC3"
    },
    {
      "bufferView": 1,
      "byteOffset": 28392,
      "componentType": 5126,
      "count": 184,
      "max": [
        0.9865580201148987,
        0.8866869807243347
      ],
      "min": [
        0.0156230004504323,
        0.036199986934661865
      ],
      "type": "VEC2"
    },
    {
      "bufferView": 0,
      "byteOffset": 58836,
      "componentType": 5125,
      "count": 780,
      "type": "SCALAR"
    }
  ],
  "asset": {
    "extras": {
      "author": "danigamer495channel (https://sketchfab.com/danigamer495channel)",
      "license": "CC-BY-4.0 (http://creativecommons.org/licenses/by/4.0/)",
      "source": "https://sketchfab.com/3d-models/sora-248b1ce343b4437ca7202375fa7adbbf",
      "title": "Sora"
    },
    "generator": "Sketchfab-15.8.0",
    "version": "2.0"
  },
  "bufferViews": [
    {
      "buffer": 0,
      "byteLength": 61956,
      "name": "floatBufferViews",
      "target": 34963
    },
    {
      "buffer": 0,
      "byteLength": 29864,
      "byteOffset": 61956,
      "byteStride": 8,
      "name": "floatBufferViews",
      "target": 34962
    },
    {
      "buffer": 0,
      "byteLength": 89592,
      "byteOffset": 91820,
      "byteStride": 12,
      "name": "floatBufferViews",
      "target": 34962
    }
  ],
  "buffers": [
    {
      "byteLength": 181412,
      "uri": "scene.bin"
    }
  ],
  "extensionsRequired": [
    "KHR_materials_pbrSpecularGlossiness"
  ],
  "extensionsUsed": [
    "KHR_materials_pbrSpecularGlossiness"
  ],
  "images": [
    {
      "uri": "textures/material_0_diffuse.png"
    },
    {
      "uri": "textures/material_1_diffuse.png"
    },
    {
      "uri": "textures/material_2_diffuse.png"
    },
    {
      "uri": "textures/material_3_diffuse.png"
    },
    {
      "uri": "textures/material_4_diffuse.png"
    }
  ],
  "materials": [
    {
      "alphaMode": "MASK",
      "doubleSided": true,
      "extensions": {
        "KHR_materials_pbrSpecularGlossiness": {
          "diffuseFactor": [
            1.0,
            1.0,
            1.0,
            1.0
          ],
          "diffuseTexture": {
            "index": 0
          },
          "glossinessFactor": 0.788235,
          "specularFactor": [
            0.0,
            0.0,
            0.0
          ]
        }
      },
      "name": "material_0"
    },
    {
      "doubleSided": true,
      "extensions": {
        "KHR_materials_pbrSpecularGlossiness": {
          "diffuseFactor": [
            1.0,
            1.0,
            1.0,
            1.0
          ],
          "diffuseTexture": {
            "index": 1
          },
          "glossinessFactor": 0.788235,
          "specularFactor": [
            0.0,
            0.0,
            0.0
          ]
        }
      },
      "name": "material_1"
    },
    {
      "alphaMode": "MASK",
      "doubleSided": true,
      "extensions": {
        "KHR_materials_pbrSpecularGlossiness": {
          "diffuseFactor": [
            1.0,
            1.0,
            1.0,
            1.0
          ],
          "diffuseTexture": {
            "index": 2
          },
          "glossinessFactor": 0.788235,
          "specularFactor": [
            0.0,
            0.0,
            0.0
          ]
        }
      },
      "name": "material_2"
    },
    {
      "alphaMode": "MASK",
      "doubleSided": true,
      "extensions": {
        "KHR_materials_pbrSpecularGlossiness": {
          "diffuseFactor": [
            1.0,
            1.0,
            1.0,
            1.0
          ],
          "diffuseTexture": {
            "index": 3
          },
          "glossinessFactor": 0.788235,
          "specularFactor": [
            0.0,
            0.0,
            0.0
          ]
        }
      },
      "name": "material_3"
    },
    {
      "doubleSided": true,
      "extensions": {
        "KHR_materials_pbrSpecularGlossiness": {
          "diffuseFactor": [
            1.0,
            1.0,
            1.0,
            1.0
          ],
          "diffuseTexture": {
            "index": 4
          },
          "glossinessFactor": 0.788235,
          "specularFactor": [
            0.0,
            0.0,
            0.0
          ]
        }
      },
      "name": "material_4"
    }
  ],
  "meshes": [
    {
      "name": "Object_0",
      "primitives": [
        {
          "attributes": {
            "NORMAL": 1,
            "POSITION": 0,
            "TEXCOORD_0": 2
          },
          "indices": 3,
          "material": 0,
          "mode": 4
        }
      ]
    },
    {
      "name": "Object_1",
      "primitives": [
        {
          "attributes": {
            "NORMAL": 5,
            "POSITION": 4,
            "TEXCOORD_0": 6
          },
          "indices": 7,
          "material": 1,
          "mode": 4
        }
      ]
    },
    {
      "name": "Object_2",
      "primitives": [
        {
          "attributes": {
            "NORMAL": 9,
            "POSITION": 8,
            "TEXCOORD_0": 10
          },
          "indices": 11,
          "material": 2,
          "mode": 4
        }
      ]
    },
    {
      "name": "Object_3",
      "primitives": [
        {
          "attributes": {
            "NORMAL": 13,
            "POSITION": 12,
            "TEXCOORD_0": 14
          },
          "indices": 15,
          "material": 3,
          "mode": 4
        }
      ]
    },
    {
      "name": "Object_4",
      "primitives": [
        {
          "attributes": {
            "NORMAL": 17,
            "POSITION": 16,
            "TEXCOORD_0": 18
          },
          "indices": 19,
          "material": 4,
          "mode": 4
        }
      ]
    }
  ],
  "nodes": [
    {
      "children": [
        1
      ],
      "matrix": [
        1.0,
        0.0,
        0.0,
        0.0,
        0.0,
        2.220446049250313e-16,
        -1.0,
        0.0,
        0.0,
        1.0,
        2.220446049250313e-16,
        0.0,
        0.0,
        0.0,
        0.0,
        1.0
      ],
      "name": "Sketchfab_model"
    },
    {
      "children": [
        2
      ],
      "name": "root"
    },
    {
      "children": [
        3
      ],
      "matrix": [
        1.0,
        0.0,
        0.0,
        0.0,
        0.0,
        2.220446049250313e-16,
        1.0,
        0.0,
        0.0,
        -1.0,
        2.220446049250313e-16,
        0.0,
        0.0,
        0.0,
        0.0,
        1.0
      ],
      "name": "GLTF_SceneRootNode"
    },
    {
      "children": [
        4,
        5,
        6,
        7,
        8
      ],
      "name": "Asset3DLoader.sceneRoot_0"
    },
    {
      "mesh": 0,
      "name": "Object_4"
    },
    {
      "mesh": 1,
      "name": "Object_5"
    },
    {
      "mesh": 2,
      "name": "Object_6"
    },
    {
      "mesh": 3,
      "name": "Object_7"
    },
    {
      "mesh": 4,
      "name": "Object_8"
    }
  ],
  "samplers": [
    {
      "magFilter": 9729,
      "minFilter": 9987,
      "wrapS": 10497,
      "wrapT": 10497
    }
  ],
  "scene": 0,
  "scenes": [
    {
      "name": "Sketchfab_Scene",
      "nodes": [
        0
      ]
    }
  ],
  "textures": [
    {
      "sampler": 0,
      "source": 0
    },
    {
      "sampler": 0,
      "source": 1
    },
    {
      "sampler": 0,
      "source": 2
    },
    {
      "sampler": 0,
      "source": 3
    },
    {
      "sampler": 0,
      "source": 4
    }
  ]
}
